<?xml version="1.0" encoding="UTF-8" standalone="no"?>
<svg
   width="372.10522"
   height="465.98352"
   viewBox="0 0 372.10522 465.98352"
   version="1.1"
   id="svg28416"
   xmlns="http://www.w3.org/2000/svg">
  <defs
     id="defs28420" />
  <path
     d="m 216.853,2.5 c 0.334,1.375 1.369,5.425 2.298,9 2.574,9.896 2.289,34.931 -0.515,45.175 -7.613,27.821 -25.067,50.521 -53.22,69.213 -13.515,8.973 -23.266,14.021 -50.212,25.993 -38.3,17.018 -51.481,25.347 -71.389,45.112 C 21.154,219.49 8.73,241.836 2.214,271.812 0.342,280.427 0,285.088 0,302 c 0,21.666 1.375,31.1 7.012,48.104 18.776,56.639 71.503,100.877 135.404,113.605 10.001,1.993 14.497,2.289 34.5,2.274 26.906,-0.019 37.763,-1.664 60.5,-9.165 67.596,-22.298 117.611,-76.616 130.987,-142.256 3.374,-16.556 4.5,-34.41 3.138,-49.786 -1.261,-14.248 -3.242,-26.347 -5.775,-35.276 l -1.56,-5.5 -3.87,11 c -13.107,37.259 -35.756,68.408 -65.42,89.973 -32.51,23.633 -63.685,33.694 -99.84,32.219 -31.192,-1.273 -54.96,-11.038 -74.703,-30.692 -14.748,-14.681 -20.957,-28.458 -20.957,-46.5 0,-16.298 5.886,-30.575 18.048,-43.774 11.667,-12.661 25.509,-22.642 54.192,-39.072 29.069,-16.651 49.11,-31.152 66.205,-47.904 5.472,-5.363 10.056,-9.75 10.186,-9.75 0.13,0 -5.943,10.012 -13.497,22.25 -54.389,88.118 -73.538,124.695 -78.919,150.75 -1.898,9.189 -1.161,13.853 2.926,18.507 6.522,7.428 15.207,6.77 33.724,-2.557 28.885,-14.548 52.979,-40.375 69.008,-73.973 C 288.395,197.66 287.743,131.847 259.436,67.5 250.378,46.909 232.644,18.869 218.081,2.112 L 216.246,0 l 0.607,2.5"
     stroke="none"
     fill="#2b6dae"
     fill-rule="evenodd"
     id="path28414"
     style="fill:#e6e6e6" />
</svg>
