<?xml version="1.0" encoding="UTF-8" standalone="no"?>
<svg
   version="1.0"
   width="119.87858pt"
   height="119.3pt"
   viewBox="0 0 119.87858 119.3"
   preserveAspectRatio="xMidYMid"
   id="svg142"
   xmlns="http://www.w3.org/2000/svg">
  <defs id="defs146" />
  <g
     transform="matrix(0.1,0,0,-0.1,-92.8,214)"
     fill="#000000"
     stroke="none"
     id="g140">
    <path
       d="m 2088,2135 c -3,-3 -84,-14 -181,-25 -359,-41 -563,-125 -688,-282 -112,-141 -149,-346 -88,-487 43,-102 148,-161 285,-161 122,0 136,52 51,189 -78,125 -91,164 -85,260 4,62 10,88 32,125 74,127 178,187 446,256 155,40 211,63 249,104 23,25 23,26 4,26 -11,0 -22,-2 -25,-5 z"
       id="path134"
       style="fill:#efeeec;fill-opacity:1" />
    <path
       d="m 1830,1935 c -56,-29 -105,-79 -97,-99 9,-24 89,-31 129,-12 37,18 78,79 78,115 0,17 -6,21 -32,21 -18,-1 -53,-12 -78,-25 z"
       id="path136"
       style="fill:#b34556;fill-opacity:1" />
    <path
       d="m 1582,1820 c -40,-9 -72,-37 -72,-62 0,-28 16,-55 76,-129 71,-87 94,-139 94,-215 0,-82 -23,-144 -75,-202 -84,-94 -194,-131 -441,-152 -126,-10 -193,-27 -204,-51 -4,-8 -13,-25 -20,-38 l -12,-24 213,6 c 151,5 241,13 307,26 309,65 507,290 490,557 -6,88 -42,170 -96,214 -65,54 -189,87 -260,70 z"
       id="path138"
       style="fill:#35d3b3;fill-opacity:1" />
  </g>
</svg>
