<?xml version="1.0" encoding="UTF-8" standalone="no"?>
<svg
   version="1.0"
   width="323.51675pt"
   height="366.66208pt"
   viewBox="0 0 323.51675 366.66208"
   preserveAspectRatio="xMidYMid"
   id="svg15221"
   xmlns="http://www.w3.org/2000/svg">
  <defs
     id="defs15225" />
  <metadata
     id="metadata15205">
Created by potrace 1.10, written by Peter Selinger 2001-2011
</metadata>
  <g
     transform="matrix(0.1,0,0,-0.1,-261.04593,651.81208)"
     fill="#000000"
     stroke="none"
     id="g15219">
    <path
       d="m 4275,6505 c -425,-44 -807,-230 -1116,-543 -89,-90 -229,-259 -229,-276 0,-3 -12,-24 -27,-48 -47,-73 -51,-81 -97,-173 -52,-106 -71,-151 -95,-225 -93,-285 -121,-554 -86,-815 22,-162 61,-329 91,-387 8,-14 14,-33 14,-41 0,-8 16,-47 35,-86 19,-39 35,-75 35,-81 0,-17 18,-11 34,12 17,24 21,64 8,70 -5,1 -22,44 -39,93 -27,82 -38,125 -74,295 -17,83 -23,370 -10,485 21,182 56,330 108,452 7,17 13,34 13,38 0,3 21,50 46,103 99,205 202,351 358,508 84,83 253,224 269,224 3,0 29,16 58,36 59,40 270,144 291,144 8,0 18,4 24,8 21,20 216,73 349,96 120,21 406,21 534,0 255,-41 494,-128 691,-249 19,-12 42,-25 50,-28 8,-4 35,-21 60,-37 71,-46 101,-62 108,-56 3,4 0,12 -6,18 -7,7 -12,18 -12,25 0,16 -35,50 -107,105 -138,105 -311,193 -498,252 -157,49 -267,71 -436,86 -137,12 -186,11 -344,-5 z"
       id="path15207"
       style="fill:#f2f2f2" />
    <path
       d="m 4520,5986 c 0,-21 36,-56 63,-62 17,-3 38,-10 47,-15 8,-4 65,-31 125,-60 275,-131 465,-287 625,-514 47,-66 160,-296 160,-325 0,-7 7,-33 15,-59 31,-98 40,-171 40,-311 0,-203 -28,-325 -118,-510 -28,-57 -80,-144 -104,-175 -106,-135 -179,-209 -278,-284 -38,-30 -72,-56 -75,-60 -7,-9 -41,-29 -67,-41 -13,-5 -23,-14 -23,-20 0,-5 -7,-10 -15,-10 -8,0 -15,3 -15,8 0,10 46,52 58,52 5,0 12,7 16,15 3,8 15,15 28,15 16,0 19,3 11,11 -14,14 -53,-6 -135,-71 -93,-73 -103,-83 -103,-100 0,-8 -11,-17 -25,-18 -14,-2 -29,-10 -33,-18 -4,-8 -12,-14 -17,-14 -4,0 -32,-16 -61,-35 -30,-19 -58,-35 -64,-35 -13,0 -45,-36 -45,-51 0,-7 9,-9 23,-5 12,4 49,11 82,17 109,18 209,42 242,55 17,8 38,14 46,14 9,0 28,6 44,14 15,8 46,22 68,31 68,28 166,79 177,92 6,7 15,13 20,13 16,0 160,115 234,186 64,62 179,205 197,244 4,8 16,29 27,45 11,17 24,39 29,50 49,108 72,172 108,310 25,100 25,457 -1,560 -31,126 -63,221 -92,277 -8,14 -14,31 -14,36 0,17 -89,162 -145,237 -61,80 -155,173 -235,231 -56,41 -206,134 -216,134 -6,0 -93,37 -115,50 -9,5 -33,12 -53,15 -20,4 -39,11 -41,16 -3,4 -27,11 -53,15 -26,3 -56,11 -66,17 -11,5 -60,13 -110,18 -50,5 -108,12 -128,15 -21,3 -38,3 -38,0 z m 355,-2467 c -8,-12 -35,-12 -35,0 0,11 22,20 33,14 4,-2 5,-9 2,-14 z"
       id="path15209"
       style="fill:#f2f2f2" />
    <path
       d="m 3149,5434 c -12,-14 -11,-16 5,-13 11,2 21,10 24,17 5,17 -13,15 -29,-4 z"
       id="path15211"
       style="fill:#f2f2f2" />
    <path
       d="m 3565,5326 -46,-46 3,-78 3,-77 570,-5 570,-5 58,-29 c 158,-77 256,-250 244,-428 -3,-44 -10,-85 -16,-91 -6,-6 -11,-20 -11,-30 0,-30 -61,-128 -110,-177 -25,-25 -93,-75 -120,-88 -98,-46 -88,-46 -609,-49 -355,-3 -497,-1 -505,7 -8,8 1,22 34,52 25,22 63,57 85,77 22,20 76,67 120,105 44,38 117,102 162,143 45,41 99,88 120,105 21,16 40,33 43,37 7,10 224,196 250,214 14,10 20,22 17,31 -5,14 -30,16 -156,16 h -150 l -83,-67 c -46,-37 -88,-72 -94,-78 -6,-5 -35,-30 -64,-55 -113,-95 -147,-124 -195,-169 -28,-25 -86,-77 -130,-116 -76,-66 -126,-111 -183,-163 -14,-12 -48,-41 -75,-65 -125,-105 -154,-157 -145,-267 l 3,-45 700,-3 c 814,-4 784,-6 968,84 170,83 313,259 371,455 23,78 21,243 -3,334 -56,212 -199,378 -391,458 -124,52 -111,51 -667,55 l -522,4 z"
       id="path15213"
       style="fill:#f2f2f2" />
    <path
       d="m 2864,3806 c -3,-9 -11,-13 -17,-9 -6,3 -7,1 -3,-5 4,-7 11,-12 16,-12 10,0 23,31 15,38 -2,3 -7,-3 -11,-12 z"
       id="path15215"
       style="fill:#f2f2f2" />
    <path
       d="m 4333,2853 c 9,-2 25,-2 35,0 9,3 1,5 -18,5 -19,0 -27,-2 -17,-5 z"
       id="path15217"
       style="fill:#f2f2f2" />
  </g>
</svg>
